<svg width="160" height="160" viewBox="0 0 160 160" fill="none" xmlns="http://www.w3.org/2000/svg">
<g clip-path="url(#clip0_1127_9439)">
<path d="M80 160C124.183 160 160 124.183 160 80C160 35.8172 124.183 0 80 0C35.8172 0 0 35.8172 0 80C0 124.183 35.8172 160 80 160Z" fill="#EDC55E" fill-opacity="0.05"/>
</g>
<g clip-path="url(#clip1_1127_9439)">
<path d="M80 155C121.421 155 155 121.421 155 80C155 38.5786 121.421 5 80 5C38.5786 5 5 38.5786 5 80C5 121.421 38.5786 155 80 155Z" fill="#EDC55E" fill-opacity="0.1"/>
</g>
<g clip-path="url(#clip2_1127_9439)">
<path d="M80 145C115.899 145 145 115.899 145 80C145 44.1015 115.899 15 80 15C44.1015 15 15 44.1015 15 80C15 115.899 44.1015 145 80 145Z" fill="#EDC55E" fill-opacity="0.15"/>
</g>
<g clip-path="url(#clip3_1127_9439)">
<path d="M80 130C107.614 130 130 107.614 130 80C130 52.3858 107.614 30 80 30C52.3858 30 30 52.3858 30 80C30 107.614 52.3858 130 80 130Z" fill="#E1AE3C"/>
<path d="M100.534 65.229C99.7077 64.4108 98.3684 64.4108 97.5422 65.229L72.1986 90.3275L62.4569 80.6801C61.6309 79.862 60.2916 79.8621 59.4653 80.6801C58.6392 81.4982 58.6392 82.8246 59.4653 83.6427L70.7028 94.7712C71.5286 95.5893 72.8689 95.5887 73.6944 94.7712L100.534 68.1916C101.36 67.3736 101.36 66.0471 100.534 65.229Z" fill="white" stroke="white" stroke-width="4.88889"/>
</g>
<defs>
<clipPath id="clip0_1127_9439">
<rect width="160" height="160" fill="white"/>
</clipPath>
<clipPath id="clip1_1127_9439">
<rect width="150" height="150" fill="white" transform="translate(5 5)"/>
</clipPath>
<clipPath id="clip2_1127_9439">
<rect width="130" height="130" fill="white" transform="translate(15 15)"/>
</clipPath>
<clipPath id="clip3_1127_9439">
<rect width="100" height="100" fill="white" transform="translate(30 30)"/>
</clipPath>
</defs>
</svg>
